<svg xmlns="http://www.w3.org/2000/svg" viewBox="0 0 760 732.86"><title>geekmonkey</title><g id="图层_2" data-name="图层 2"><g id="图层_1-2" data-name="图层 1"><path d="M753.83,453.83c-15.77,52.23-57,86.35-93.61,78.49C625.68,633.07,543.81,709.89,443,732.86A131.59,131.59,0,0,0,490.77,549q6.18.6,12.52.61c72.08,0,130.52-58.73,130.52-131.17S575.37,287.28,503.29,287.28c-58,0-107.1,38-124.13,90.52-17-52.54-66.16-90.52-124.13-90.52C183,287.28,124.51,346,124.51,418.44S183,549.61,255,549.61a132.53,132.53,0,0,0,13.88-.74,131.59,131.59,0,0,0,47.72,184C215.81,709.89,134,633.11,99.4,532.39c-36.52,7.54-77.51-26.51-93.23-78.56C-10.16,399.7,7,346.64,44.59,335.3c15.52-4.68,32.09-1.49,47.34,7.68C126.16,209,242.06,110.37,379.8,110.37q14.22,0,28.09,1.4c12.77-12.27,19.26-29.11,19.26-50.35,0-15.73-12.62-33.27-30.71-33.27-16.32,0-28.16,10.77-28.16,25.59,0,8.08,3.43,15.05,9.18,18.64a14.08,14.08,0,1,1-14.95,23.86c-14-8.77-22.38-24.66-22.38-42.5C340.13,23.11,364.34,0,396.44,0c35.21,0,58.86,31.76,58.86,61.42,0,16.82-3.25,37.19-15.09,55.43,110.38,24,198.48,112.38,227.52,226.35,15.34-9.33,32-12.62,47.68-7.9C753,346.64,770.16,399.7,753.83,453.83Zm-272.94,171a8.32,8.32,0,1,0-16.63,0c0,39.71-32.38,73.25-70.7,73.25a8.32,8.32,0,1,0,0,16.64C440.9,714.68,480.89,673.51,480.89,624.79ZM293.77,401.37a28.73,28.73,0,0,1,5.41,17.07c0,14.14-9.45,25.6-21.11,25.6-8.42,0-15.66-6-19.05-14.62a65.32,65.32,0,0,0-1.43,13.66c0,24,12.61,43.5,28.16,43.5s28.15-19.48,28.15-43.5C313.9,423.35,305.41,406.71,293.77,401.37Zm181.36,85.21c15.55,0,28.16-19.48,28.16-43.5,0-19.73-8.5-36.37-20.14-41.71a28.67,28.67,0,0,1,5.42,17.07c0,14.14-9.45,25.6-21.11,25.6-8.42,0-15.66-6-19.06-14.62A66,66,0,0,0,447,443.08C447,467.1,459.59,486.58,475.13,486.58ZM370.55,567l-.25-.37c-.17-.25-.33-.48-.49-.68-.33-.41-.65-.83-1-1.19-.66-.76-1.36-1.44-2.05-2.11a30.23,30.23,0,0,0-4.52-3.43,26.64,26.64,0,0,0-10.13-3.73c-.86-.14-1.73-.15-2.58-.22a14,14,0,0,0-2.51,0,24.3,24.3,0,0,0-2.44.22l-2.35.46a14.52,14.52,0,0,0-2.26.62l-2.18.73c-1.4.59-2.75,1.25-4.08,1.86,1.5.06,2.95.09,4.38.19l2.11.33a11.55,11.55,0,0,1,2,.43l2,.56c.64.19,1.24.52,1.83.76a9.48,9.48,0,0,1,1.71.87c.53.35,1.07.63,1.56,1a16.1,16.1,0,0,1,4.53,5.12,16.33,16.33,0,0,1,1.27,2.93,12.08,12.08,0,0,1,.36,1.47,4.27,4.27,0,0,1,.09.67.65.65,0,0,1,0,.28v.12c0,.06-.07,0-.1-.07a8.32,8.32,0,0,0,15.41-6.28C370.77,567.4,370.62,567.12,370.55,567Zm33.57,5.84a12.08,12.08,0,0,1,.36-1.47,16.33,16.33,0,0,1,1.27-2.93,16.1,16.1,0,0,1,4.53-5.12c.49-.37,1-.65,1.56-1a9.48,9.48,0,0,1,1.71-.87c.59-.24,1.19-.57,1.83-.76l2-.56a11.55,11.55,0,0,1,2-.43l2.11-.33c1.43-.1,2.88-.13,4.38-.19-1.33-.61-2.68-1.27-4.08-1.86l-2.18-.73a14.52,14.52,0,0,0-2.26-.62l-2.35-.46a24.3,24.3,0,0,0-2.44-.22,14,14,0,0,0-2.51,0c-.85.07-1.72.08-2.58.22a26.64,26.64,0,0,0-10.13,3.73,30.23,30.23,0,0,0-4.52,3.43c-.69.67-1.39,1.35-2.05,2.11-.33.36-.65.78-1,1.19-.16.2-.32.43-.49.68l-.25.37c-.07.1-.22.38-.32.56a8.32,8.32,0,0,0,15.41,6.28s-.11.13-.1.07v-.12a.65.65,0,0,1,0-.28A4.27,4.27,0,0,1,404.12,572.86Zm-23.68-164c-19.79,0-28.94,23.18-32,34.55-14.08,52.46-50.34,84.45-93.49,84.45H231.23c-51.95,0-77.36-47.49-78.57-102.62a14.1,14.1,0,0,0-14.07-13.83h-1.28a2.55,2.55,0,0,1-2.56-2.55v-32a2.55,2.55,0,0,1,2.56-2.55l81.36-5.38a347.29,347.29,0,0,1,107.05,9.61l18.18,4.55a150.85,150.85,0,0,0,73.08,0l18.18-4.55a347.29,347.29,0,0,1,107.05-9.61l81.36,5.38a2.55,2.55,0,0,1,2.56,2.55v32a2.55,2.55,0,0,1-2.56,2.55h-1.28a14,14,0,0,0-13.93,12.68c-6.24,62.2-26.45,103.77-78.71,103.77H505.92c-43.15,0-79.41-32-93.49-84.45C409.38,432,400.91,408.85,380.44,408.85Zm49.67,20.54,14.79,37.17c.32.81.66,1.61,1,2.4,10.08,22.73,32.82,37.23,57.68,37.91l30.71.84a48.11,48.11,0,0,0,18.52-3.15c15.16-5.8,26.08-19.24,29.47-35.11L590,433.17a36.6,36.6,0,0,0-35.66-44.26c-12.07,0-24.92-.13-36.34-.22A308.61,308.61,0,0,0,448.69,396l-1.39.31a25.22,25.22,0,0,0-8.47,3.6C429.28,406.28,425.87,418.74,430.11,429.39ZM323.68,399.94a25.08,25.08,0,0,0-8.46-3.6l-1.39-.31a308.67,308.67,0,0,0-69.35-7.34c-11.42.09-24.27.18-36.34.22a36.61,36.61,0,0,0-35.67,44.26l7.76,36.32c3.25,15.22,13.43,28.26,27.74,34.37a48.11,48.11,0,0,0,20.25,3.85l30.71-.84c24.86-.68,47.59-15.18,57.68-37.91.35-.79.68-1.59,1-2.4l14.78-37.17C336.64,418.74,333.23,406.28,323.68,399.94Z"/></g></g></svg>